HIERARCHY
ROOT Pelvis
{
	OFFSET 0.000000 0.000000 0.000000
	CHANNELS 6 Xposition Yposition Zposition Zrotation Yrotation Xrotation 
	JOINT Left_hip
	{
		OFFSET 0.076090 -0.089427 -0.010735
		CHANNELS 3 Zrotation Yrotation Xrotation
		JOINT Left_knee
		{
			OFFSET 0.030200 -0.359518 -0.003501
			CHANNELS 3 Zrotation Yrotation Xrotation
			JOINT Left_ankle
			{
				OFFSET -0.011005 -0.371022 -0.045888
				CHANNELS 3 Zrotation Yrotation Xrotation
				JOINT Left_foot
				{
					OFFSET 0.023930 -0.052103 0.111084
					CHANNELS 3 Zrotation Yrotation Xrotation
					End Site
					{
						OFFSET 0.000000 0.000000 0.000000
					}
				}
			}
		}
	}
	JOINT Right_hip
	{
		OFFSET -0.073836 -0.088112 -0.007709
		CHANNELS 3 Zrotation Yrotation Xrotation
		JOINT Right_knee
		{
			OFFSET -0.035715 -0.367809 -0.006536
			CHANNELS 3 Zrotation Yrotation Xrotation
			JOINT Right_ankle
			{
				OFFSET 0.013718 -0.371958 -0.043815
				CHANNELS 3 Zrotation Yrotation Xrotation
				JOINT Right_foot
				{
					OFFSET -0.021936 -0.046387 0.114542
					CHANNELS 3 Zrotation Yrotation Xrotation
					End Site
					{
						OFFSET 0.000000 0.000000 0.000000
					}
				}
			}
		}
	}
	JOINT Spine1
	{
		OFFSET -0.001865 0.102064 -0.019455
		CHANNELS 3 Zrotation Yrotation Xrotation
		JOINT Spine2
		{
			OFFSET 0.003082 0.129260 -0.001938
			CHANNELS 3 Zrotation Yrotation Xrotation
			JOINT Spine3
			{
				OFFSET 0.001104 0.048093 0.026561
				CHANNELS 3 Zrotation Yrotation Xrotation
				JOINT Neck
				{
					OFFSET -0.002010 0.204222 -0.047183
					CHANNELS 3 Zrotation Yrotation Xrotation
					JOINT Head
					{
						OFFSET 0.005050 0.063649 0.048489
						CHANNELS 3 Zrotation Yrotation Xrotation
						End Site
						{
							OFFSET 0.000000 0.000000 0.000000
						}
					}
				}
				JOINT Left_collar
				{
					OFFSET 0.072979 0.114065 -0.031633
					CHANNELS 3 Zrotation Yrotation Xrotation
					JOINT Left_shoulder
					{
						OFFSET 0.083419 0.032092 -0.006530
						CHANNELS 3 Zrotation Yrotation Xrotation
						JOINT Left_elbow
						{
							OFFSET 0.239393 -0.012014 -0.025060
							CHANNELS 3 Zrotation Yrotation Xrotation
							JOINT Left_wrist
							{
								OFFSET 0.227297 0.008116 0.000384
								CHANNELS 3 Zrotation Yrotation Xrotation
								JOINT Left_palm
								{
									OFFSET 0.074607 -0.009248 -0.012277
									CHANNELS 3 Zrotation Yrotation Xrotation
									End Site
									{
										OFFSET 0.000000 0.000000 0.000000
									}
								}
							}
						}
					}
				}
				JOINT Right_collar
				{
					OFFSET -0.074980 0.111880 -0.037894
					CHANNELS 3 Zrotation Yrotation Xrotation
					JOINT Right_shoulder
					{
						OFFSET -0.087565 0.034353 -0.009323
						CHANNELS 3 Zrotation Yrotation Xrotation
						JOINT Right_elbow
						{
							OFFSET -0.236838 -0.013719 -0.019794
							CHANNELS 3 Zrotation Yrotation Xrotation
							JOINT Right_wrist
							{
								OFFSET -0.235053 0.006433 -0.003853
								CHANNELS 3 Zrotation Yrotation Xrotation
								JOINT Right_palm
								{
									OFFSET -0.075499 -0.006894 -0.009792
									CHANNELS 3 Zrotation Yrotation Xrotation
									End Site
									{
										OFFSET 0.000000 0.000000 0.000000
									}
								}
							}
						}
					}
				}
			}
		}
	}
}
MOTION
Frames: 9
Frame Time: 0.100000
-0.426125 -0.246887 1.295991 169.516696 51.239500 12.471382 2.633749 -0.185510 -42.733127 -5.583516 -7.389427 -0.399322 -4.776756 12.820968 6.684521 3.691141 7.098910 0.738459 -1.640412 -0.918760 -50.946834 1.738191 -2.393881 24.459956 4.921285 -17.206588 -5.507008 -5.371547 4.481858 3.708489 8.875983 -6.563126 65.809805 -6.600255 0.797483 7.989742 4.955635 5.635098 5.129862 -15.866966 -14.158463 11.314527 18.404430 7.113303 -27.026126 28.777176 -38.020310 -25.051311 2.874314 -29.229166 -27.019308 30.788736 -23.162450 -41.496442 20.978353 -1.395444 -18.231549 13.656801 1.493741 8.782714 -49.994029 43.379709 -24.912854 -11.484764 16.953574 -29.320252 0.292873 7.061124 0.216376 -11.271042 5.320414 31.647055 -10.012124 1.955275 -1.217832 
-0.425983 -0.247098 1.296599 170.368902 51.155330 12.249512 1.701009 0.511422 -39.050168 -5.138254 -4.205548 -5.528670 -7.049364 9.022334 8.923032 -1.335446 9.011615 1.319081 -2.290212 -0.488010 -50.523126 -0.341573 -4.865461 26.699128 4.815871 -13.488498 -8.360259 -1.365403 3.764154 4.342432 8.179532 -7.156651 66.555778 -7.922805 0.429376 8.997761 4.541779 5.772052 3.222869 -16.248513 -10.003811 14.194089 19.234862 4.636848 -31.810231 27.902157 -40.791632 -29.414276 2.762255 -27.001034 -21.357311 30.440218 -25.037692 -46.773136 19.338942 -3.233986 -8.008348 14.853040 0.090835 5.546940 -46.378141 43.883902 -23.722034 -9.105344 9.903231 -26.031674 1.779408 5.371558 -2.789117 -17.053791 -2.435456 33.992212 -9.270047 4.910087 -4.356706 
-0.426039 -0.247709 1.297149 170.018206 51.420547 11.706011 1.701490 0.786388 -38.618479 -5.077093 -4.289524 -5.733932 -7.545626 9.014211 8.958485 -0.596881 8.555480 1.354759 -2.352434 -0.202147 -50.008959 -0.154869 -5.033226 26.426327 4.443161 -13.679414 -8.541190 -0.768725 3.428915 5.376741 7.837268 -7.157327 66.254300 -7.755088 0.189090 8.977185 4.229913 5.389683 3.030813 -16.837744 -9.103926 12.157922 17.931717 4.006004 -32.007318 26.244337 -40.748788 -28.428104 3.017347 -26.990065 -20.452787 30.162359 -24.753915 -46.512205 18.877486 -3.197722 -8.694258 12.857663 0.664459 3.357864 -43.130827 43.122976 -21.968219 -8.296713 8.356968 -26.598348 0.861641 2.987090 -13.430572 -15.833574 -4.951740 23.377972 -7.622537 4.340631 -5.277015 
-0.425344 -0.248928 1.297315 169.568209 50.752285 10.804884 1.805382 1.224689 -37.938659 -4.767118 -3.811514 -5.952326 -8.839740 9.331335 8.779899 1.900245 8.043661 1.861025 -2.199283 0.333079 -48.858803 0.167350 -4.825055 25.039602 5.255758 -14.106035 -8.768119 -2.492696 4.524491 6.170007 7.515919 -6.490691 65.323930 -7.689772 0.264768 9.170060 3.855847 5.351131 2.364027 -16.383999 -8.570776 8.150644 16.869324 2.209257 -30.326678 24.767755 -41.922959 -27.728670 2.161223 -26.786319 -18.211290 28.463550 -24.497149 -44.479174 17.833512 -4.140571 -7.987199 10.470421 1.652205 0.286711 -41.081719 43.998416 -22.034857 -7.762441 8.664150 -26.914258 0.590792 4.657435 -21.513712 -10.204972 -5.358942 10.116491 -6.982700 3.063047 -5.175115 
-0.424833 -0.250003 1.297714 169.054168 50.104388 8.918557 1.983106 1.508487 -36.226558 -4.308635 -3.038181 -6.036864 -10.303973 9.116533 8.314165 4.510565 7.445242 2.425127 -1.860399 0.539837 -46.736330 0.343981 -4.966164 23.928543 6.869875 -14.099451 -8.957148 -5.620529 6.447526 5.744914 7.335705 -5.348753 63.073336 -6.833411 0.139825 9.612718 3.920666 5.465938 1.383823 -15.354721 -7.979279 2.723139 15.678413 -1.067436 -27.633657 22.865520 -43.737457 -26.926454 -1.188693 -27.461800 -14.940215 24.786470 -24.821424 -39.985140 15.988455 -5.931571 -5.923096 8.731907 1.724526 -1.521186 -37.569162 46.425024 -22.040196 -6.390713 12.009669 -25.688309 -0.559024 10.048379 -21.032187 -6.104706 -2.824656 6.157032 -6.485171 2.633131 -4.850061 
-0.425458 -0.250487 1.296884 168.817641 49.800788 6.790707 2.003191 1.530884 -34.098280 -4.073640 -2.579853 -5.871615 -11.231418 8.723979 7.221265 6.674522 7.480145 3.487556 -1.758253 0.896786 -44.258859 0.329127 -4.699577 23.180059 7.948579 -15.172293 -9.579271 -8.298017 9.430145 5.733945 7.304936 -4.569435 60.641870 -5.958837 0.167103 10.210434 4.001098 5.620754 0.096263 -13.042049 -7.703977 -3.865900 14.796597 -3.430965 -24.852751 19.186829 -46.980799 -25.571687 -3.789316 -28.113217 -12.357680 23.802391 -25.067241 -38.839080 15.134753 -6.032803 -4.760430 6.372056 1.392435 -3.338772 -33.184393 50.537040 -21.783417 -5.526236 15.279580 -25.127925 -1.060053 12.839148 -23.464365 -1.532859 -2.020128 1.752708 -6.097476 2.245595 -4.675985 
-0.427161 -0.250622 1.293913 169.044420 48.652175 5.425687 2.047371 1.543464 -32.303328 -3.898124 -2.043582 -5.861124 -11.544070 9.014950 6.206114 7.910858 8.003505 4.784924 -1.581582 0.965815 -42.161961 0.555493 -4.204763 21.980507 9.335078 -15.672449 -9.771414 -11.201199 12.260722 5.319675 7.392722 -3.472879 59.329579 -5.509871 0.337209 11.226777 4.249503 6.038530 -1.195656 -10.188591 -6.897311 -10.840039 15.761729 -5.350051 -25.872139 17.401877 -50.539358 -24.996829 -4.088354 -27.206793 -11.338301 22.984443 -25.040194 -38.765914 17.309510 -6.556172 -3.351019 4.596620 0.417720 -5.414091 -31.500281 55.262123 -22.435608 -5.313842 17.749222 -26.051089 -1.290436 11.063221 -26.690399 -6.827870 -2.009596 2.510102 -3.162896 2.758410 -7.033704 
-0.429781 -0.250375 1.288680 169.128924 46.260149 4.383130 2.257579 2.074772 -31.387618 -3.782610 -1.276606 -4.863481 -10.892119 9.288558 4.997502 8.091705 9.233954 5.688436 -0.983675 1.465188 -40.516630 0.588135 -3.355413 20.543766 8.629319 -14.438995 -8.327512 -9.943496 10.499860 4.531083 7.215320 -3.023620 58.809442 -5.461537 0.220062 12.286113 4.773809 6.265951 -1.738138 -8.552172 -6.657438 -11.919377 17.127110 -3.338163 -30.426004 18.495058 -50.725449 -25.366932 -5.102530 -25.369858 -11.660623 23.043936 -24.325409 -39.325161 16.084003 -5.799504 -2.890439 4.815463 0.557632 -6.118162 -35.445859 56.735199 -25.132477 -2.188229 21.899242 -24.788510 -1.968632 15.152022 -22.989714 -4.707835 -2.611435 1.877277 -3.467318 2.866681 -7.221758 
-0.432898 -0.249586 1.282184 168.781332 44.500039 2.776092 2.941270 2.324335 -31.027669 -4.222479 -0.745709 -3.304196 -10.457936 8.854904 4.048518 8.800222 13.172188 5.405330 -0.505517 1.937234 -39.413018 1.025383 -1.502811 19.643553 11.409141 -17.210625 -8.084531 -14.215181 15.542217 0.979433 5.839703 -1.633543 59.849454 -5.762096 0.269265 13.139855 4.057925 5.162380 -2.331584 -0.507339 -2.964655 -16.614678 17.838411 -1.881088 -25.780861 19.779601 -48.079444 -26.158514 -2.483706 -27.292166 -13.010408 20.916328 -24.021807 -36.838706 17.543973 -5.511745 0.203368 5.610497 -0.430026 -6.824252 -32.804059 56.256718 -26.540494 -1.103553 25.799780 -21.138151 -2.742034 19.935805 -19.870881 -7.918189 -0.865201 6.894725 -2.557512 3.034912 -7.447494 
